Charmed - Season 1-8 [x264]
_____________________________________________________________________________________

Three sisters - Prue, Piper and Phoebe Halliwell - reunite in their ancestral home, Halliwell Manor. When the youngest sister, Phoebe, ventures into the previously-locked attic, she recites a passage from an ancient book which unlocks their dormant powers to transform them into The Charmed Ones -… More the most powerful witches ever to exist. Now they must vanquish evil and save innocent lives while living their own lives as normal women in the real world. Life isn't so easy when you're Charmed.


In Season 4, half-sister (and half-Whitelighter) Paige replaces the dearly departed Prue in The Power of Three.


In season 8, a life-or-death decision forces the sisters to fake their deaths and take a young witch named Billie into their care to help them fight the evil forces that once threatened their existence so that they could maintain the 'normal' lives for which they had spent the last 7 years fighting to regain.
-----------------------------------------------------------------------------------

General
UniqueID                         : 198062027393623847070146015205964864845 (0x95015BE383A8523AA0BE6525730F5D4D)
Complete name                    :Charmed - S01E01 - Episode 1 - Something Wicca This Way Comes.mkv
Format                           : Matroska
File size                        : 940 MiB
Duration                         : 43mn 29s
Overall bit rate                 : 3 022 Kbps
Movie name                       : Charmed - S01E01 - Episode 1 - Something Wicca This Way Comes
Encoded date                     : UTC 2010-11-12 15:30:26
Writing application              : mkvmerge v4.0.0 ('The Stars were mine') built on Jun  6 2010 16:18:42
Writing library                  : libebml v1.0.0 + libmatroska v1.0.0

Video
ID                               : 1
Format                           : AVC
Format/Info                      : Advanced Video Codec
Format profile                   : High@L3.1
Format settings, CABAC           : Yes
Format settings, ReFrames        : 8 frames
Codec ID                         : V_MPEG4/ISO/AVC
Duration                         : 43mn 29s
Bit rate                         : 2 700 Kbps
Width                            : 720 pixels
Height                           : 544 pixels
Display aspect ratio             : 4:3
Original display aspect ratio    : 4:3
Frame rate                       : 29.970 fps
Color space                      : YUV
Chroma subsampling               : 4:2:0
Bit depth                        : 8 bits
Scan type                        : Progressive
Bits/(Pixel*Frame)               : 0.230
Stream size                      : 822 MiB (87%)
Writing library                  : x264 core 79
Encoding settings                : cabac=1 / ref=8 / deblock=1:0:0 / analyse=0x3:0x113 / me=umh / subme=9 / psy=1 / psy_rd=1.0:0.0 / mixed_ref=1 / me_range=16 / chroma_me=1 / trellis=1 / 8x8dct=1 / cqm=0 / deadzone=21,11 / chroma_qp_offset=-2 / threads=3 / nr=0 / decimate=0 / mbaff=0 / constrained_intra=0 / bframes=4 / b_pyramid=0 / b_adapt=2 / b_bias=0 / direct=1 / wpredb=1 / wpredp=2 / keyint=300 / keyint_min=30 / scenecut=40 / rc_lookahead=50 / rc=2pass / mbtree=1 / bitrate=2700 / ratetol=1.0 / qcomp=0.60 / qpmin=10 / qpmax=51 / qpstep=4 / cplxblur=20.0 / qblur=0.5 / ip_ratio=1.40 / aq=1:1.00
Language                         : English
Color primaries                  : BT.601-6 525, BT.1358 525, BT.1700 NTSC, SMPTE 170M
Transfer characteristics         : BT.709-5, BT.1361
Matrix coefficients              : BT.601-6 525, BT.1358 525, BT.1700 NTSC, SMPTE 170M

Audio
ID                               : 2
Format                           : MPEG Audio
Format version                   : Version 1
Format profile                   : Layer 3
Mode                             : Joint stereo
Codec ID                         : A_MPEG/L3
Codec ID/Hint                    : MP3
Duration                         : 43mn 29s
Bit rate mode                    : Constant
Bit rate                         : 320 Kbps
Channel(s)                       : 2 channels
Sampling rate                    : 48.0 KHz
Compression mode                 : Lossy
Stream size                      : 99.5 MiB (11%)
Writing library                  : LAME3.98
Language                         : English

Text
ID                               : 3
Format                           : UTF-8
Codec ID                         : S_TEXT/UTF8
Codec ID/Info                    : UTF-8 Plain Text
Language                         : English

Menu
00:00:00.000                     : en:Chapter 1
00:04:41.381                     : en:Chapter 2
00:18:47.526                     : en:Chapter 3
00:26:38.697                     : en:Chapter 4
00:36:38.029                     : en:Chapter 5
00:42:46.063                     : en:Chapter 6

